<?xml version="1.0" encoding="UTF-8"?><svg id="_4" xmlns="http://www.w3.org/2000/svg" viewBox="0 0 1081 368"><defs><style>.cls-1{fill:#fff;stroke-width:0px;}</style></defs><path class="cls-1" d="M369.76,121.86c-15.47,0-27.74,7.74-27.74,21.87s18.4,20.53,33.34,25.6c27.47,9.34,58.41,21.6,58.41,59.21,0,41.07-37.34,57.87-68.27,57.87-28.27,0-49.61-9.87-69.87-29.87l22.4-21.6c16.27,15.73,28.53,22.93,47.74,22.93,16.54,0,33.07-8,33.07-27.47,0-17.87-18.94-24.54-38.41-31.47-25.07-9.07-51.47-21.33-51.47-53.6,0-35.47,28.27-52,58.94-52,23.2,0,42.14,7.2,60.27,20.8l-19.47,23.74c-9.6-8.53-24.54-16-38.94-16Z"/><path class="cls-1" d="M543.75,283.21l-1.6-12.8c-9.87,11.73-23.2,16-38.94,16-25.6,0-49.34-14.13-49.34-42.94,0-34.14,31.47-44.8,60.54-44.8,7.2,0,15.74.8,25.87,2.93v-3.2c0-18.67-8.27-29.87-29.34-29.87-15.47,0-30.67,5.87-42.4,12l-8.8-24.27c16.27-8,37.34-13.61,57.07-13.61,38.93,0,55.74,21.87,55.74,57.61v82.94h-28.8ZM540.29,222.41c-8.27-1.87-14.94-2.67-21.07-2.67-15.2,0-33.6,4.8-33.6,22.67,0,13.87,10.93,20,23.47,20s21.87-5.6,31.2-13.6v-26.4Z"/><path class="cls-1" d="M628.56,222.67c2.13,20.54,16,37.34,38.4,37.34,17.87,0,29.34-6.93,37.87-21.33l21.87,14.67c-15.2,22.4-33.07,33.07-61.61,33.07-42.41,0-69.08-30.14-69.08-70.94s30.14-72.81,69.08-72.81,64.8,26.94,64.8,63.74c0,5.07-.54,11.2-1.33,16.27h-100.01ZM665.9,168.53c-19.74,0-31.2,13.33-35.47,30.94h66.41c-.8-17.87-13.87-30.94-30.94-30.94Z"/><path class="cls-1" d="M861.97,270.94c-12,10.4-28,15.47-46.4,15.47-40,0-69.88-29.07-69.88-72.01,0-40,29.87-71.74,71.21-71.74,16.8,0,32,5.34,44.27,14.67l-16,24c-7.73-6.67-17.07-10.4-27.2-10.4-22.4,0-39.47,19.47-39.47,43.47,0,25.6,17.87,43.74,39.2,43.74,9.87,0,19.74-3.47,27.47-10.14l16.8,22.94Z"/><path class="cls-1" d="M881.2,123.46v-30.14h32.27v30.14h-32.27ZM881.2,283.21v-137.35h32.27v137.35h-32.27Z"/><path class="cls-1" d="M1080.5,214.4c0,40.27-30.14,72.01-71.21,72.01s-71.21-31.74-71.21-72.01,30.14-71.74,71.21-71.74,71.21,31.74,71.21,71.74ZM1009.29,170.93c-22.4,0-38.4,19.47-38.4,43.47s16,43.74,38.4,43.74,38.41-19.47,38.41-43.74-16-43.47-38.41-43.47Z"/><path class="cls-1" d="M234.02,102.77h-109.88c-4.91,0-9.45-2.62-11.91-6.88-2.46-4.26-2.46-9.5,0-13.75l37.5-64.96C155.84,6.6,166.77.28,178.98.27h.03c12.2,0,23.13,6.3,29.25,16.86l37.66,64.98c2.47,4.26,2.47,9.5.02,13.76-2.46,4.26-7,6.89-11.92,6.89ZM147.96,75.26h62.19l-25.69-44.33c-1.58-2.73-4.09-3.14-5.45-3.14h0c-1.36,0-3.87.41-5.45,3.15l-25.59,44.32Z"/><path class="cls-1" d="M69.26,367.73c-12.2,0-23.13-6.3-29.25-16.86L2.35,285.88c-2.47-4.26-2.47-9.5-.02-13.76,2.46-4.26,7-6.89,11.92-6.89h109.88c4.91,0,9.45,2.62,11.91,6.88,2.46,4.26,2.46,9.5,0,13.75l-37.5,64.96c-6.11,10.58-17.04,16.9-29.26,16.91,0,0-.02,0-.03,0ZM38.12,292.74l25.69,44.33c1.58,2.73,4.09,3.14,5.45,3.14h0c1.36,0,3.87-.41,5.45-3.15l25.59-44.32h-62.19Z"/><path class="cls-1" d="M199.28,293.09h-75.14c-4.91,0-9.45-2.62-11.91-6.88L19.71,125.98c-6.11-10.59-6.11-23.23,0-33.81,6.11-10.59,17.06-16.91,29.28-16.91h75.14c4.91,0,9.45,2.62,11.91,6.88l92.51,160.24c6.11,10.59,6.11,23.23,0,33.81-6.11,10.59-17.06,16.91-29.28,16.91ZM132.08,265.58h67.2c3.17,0,4.78-1.97,5.46-3.15.68-1.18,1.58-3.56,0-6.3L116.2,102.77H48.99c-3.17,0-4.78,1.97-5.46,3.15-.68,1.18-1.58,3.56,0,6.3l88.54,153.36Z"/></svg>